<?xml version="1.0" encoding="UTF-8"?>
<svg version="1.1" xmlns="http://www.w3.org/2000/svg" width="100" height="100">
<path d="M0 0 C1.10666016 0.00572021 2.21332031 0.01144043 3.35351562 0.01733398 C16.14565007 0.29685605 25.17584079 3.87003795 34.75 12.5 C35.35199219 12.97566406 35.95398438 13.45132812 36.57421875 13.94140625 C43.54665458 19.94240158 47.88557088 29.90671264 50.75 38.5 C51.03601643 42.32828065 51.02782139 46.16223416 51.0625 50 C51.10600586 51.55847656 51.10600586 51.55847656 51.15039062 53.1484375 C51.21158688 60.6991134 49.79678853 66.61024128 46.75 73.5 C46.30398437 74.5209375 45.85796875 75.541875 45.3984375 76.59375 C41.73078001 83.52404758 35.92708498 93.81932314 28.0546875 96.375 C25.75 96.5 25.75 96.5 23.9375 95.375 C22.35281528 92.87286623 22.4166727 91.42538561 22.75 88.5 C24.25390625 86.68359375 24.25390625 86.68359375 26.3125 84.9375 C33.74122249 77.94420884 38.24046673 69.56355511 39.75 59.5 C36.47393244 61.13803378 35.87628604 64.74452353 34.5625 68 C27.9780842 83.54849269 17.32149226 92.90152308 1.75 99.5 C-1.824677 100.71567963 -5.24369346 100.60006307 -9 100.5625 C-10.17046875 100.55347656 -11.3409375 100.54445313 -12.546875 100.53515625 C-13.88492188 100.51775391 -13.88492188 100.51775391 -15.25 100.5 C-16.4375 98.25 -16.4375 98.25 -17.25 95.5 C-16.34765625 93.3046875 -16.34765625 93.3046875 -14.25 91.5 C-11.6863622 90.71432213 -9.30322866 90.12811755 -6.6875 89.625 C4.05426266 87.22883481 12.97995245 82.433671 19.75 73.5 C22.41444802 68.99857229 24.60772276 64.26656687 26.75 59.5 C26.09 58.51 25.43 57.52 24.75 56.5 C24.33041016 57.64275391 24.33041016 57.64275391 23.90234375 58.80859375 C18.85023309 71.82062152 11.63860315 80.62436928 -1.0625 86.88671875 C-12.43741416 91.29140698 -24.40903289 90.77363647 -35.796875 86.765625 C-38.54156902 85.34957267 -40.2831506 83.87489042 -42.25 81.5 C-42.3125 78.875 -42.3125 78.875 -41.25 76.5 C-39.125 75 -39.125 75 -36.25 74.5 C-32.75 75.8125 -32.75 75.8125 -29.25 77.5 C-19.58480555 79.89237486 -10.09897246 79.10855577 -1.25 74.5 C5.66917554 69.87122745 11.6152168 63.12018875 13.625 54.9375 C13.66625 54.133125 13.7075 53.32875 13.75 52.5 C10.80429857 53.97285072 10.44795177 56.14651083 9.125 59.125 C4.58390825 68.32726045 -1.46548932 73.04959092 -11.04296875 76.67578125 C-20.23671023 79.03860641 -28.42990276 76.79926426 -36.58203125 72.30859375 C-42.49968371 68.29706654 -46.58523075 63.12716528 -49.25 56.5 C-49.72132047 53.28324687 -49.77383416 50.12255774 -49.75 46.875 C-49.74500488 45.98780273 -49.74000977 45.10060547 -49.73486328 44.18652344 C-49.4449392 33.21739563 -45.45786841 24.68430379 -38.25 16.5 C-37.72664063 15.89542969 -37.20328125 15.29085938 -36.6640625 14.66796875 C-26.59491046 3.81881198 -14.45691604 -0.08636542 0 0 Z " fill="#EC7E32" transform="translate(49.25,-0.5)"/>
<path d="M0 0 C0.99 0.66 1.98 1.32 3 2 C3.40843923 4.71203652 3.13336867 7.2437142 3 10 C1.68 9.67 0.36 9.34 -1 9 C-1.3403125 9.78503906 -1.680625 10.57007813 -2.03125 11.37890625 C-6.98362412 22.11344057 -12.64060796 27.95331509 -23.79296875 32.17578125 C-32.98671023 34.53860641 -41.17990276 32.29926426 -49.33203125 27.80859375 C-55.00170749 23.96516755 -59.8159953 18.55201409 -62 12 C-62.22470317 8.31793209 -62.17694813 4.68314249 -62 1 C-61.67 1 -61.34 1 -61 1 C-60.81824219 1.85271484 -60.81824219 1.85271484 -60.6328125 2.72265625 C-60.28394083 4.33014954 -59.92532768 5.93555 -59.55859375 7.5390625 C-59.21569448 9.04973762 -58.8910454 10.56487141 -58.59765625 12.0859375 C-58.18337043 14.17729268 -58.18337043 14.17729268 -57 17 C-54.50965614 18.29660434 -54.50965614 18.29660434 -52 19 C-51.67 19.99 -51.34 20.98 -51 22 C-49.865625 22.144375 -48.73125 22.28875 -47.5625 22.4375 C-44 23 -44 23 -43 24 C-31.05523896 24.67220769 -31.05523896 24.67220769 -20.375 20.375 C-16.11776894 15.72719728 -13.41486377 9.755002 -10.6640625 4.1328125 C-7.99084138 -0.89987139 -5.42278584 -0.28540978 0 0 Z " fill="#8A2A02" transform="translate(62,44)"/>
<path d="M0 0 C5.88928849 0.63667984 11.65441446 2.4669611 17 5 C19.20914 8.31371 19.22481553 9.3446021 19.125 13.1875 C19.10695313 14.08855469 19.08890625 14.98960938 19.0703125 15.91796875 C19.04710938 16.60503906 19.02390625 17.29210937 19 18 C17.68 17.67 16.36 17.34 15 17 C14.8046875 14.98177083 14.609375 12.96354167 14.4140625 10.9453125 C14.13625251 8.77331755 14.13625251 8.77331755 12 7 C10.01178687 6.60235737 8.01055661 6.26224651 6 6 C6.33 7.32 6.66 8.64 7 10 C5.35 9.67 3.7 9.34 2 9 C2 11.64 2 14.28 2 17 C-1 17 -1 17 -2.6875 15.5 C-4.51185291 12.02504208 -4.71475795 8.79950281 -4 5 C-2 2 -2 2 0 0 Z " fill="#FBF5EE" transform="translate(51,16)"/>
<path d="M0 0 C5.4 -0.36 5.4 -0.36 7.875 1.125 C9.48515263 3.80858771 9.26647742 5.93550972 9 9 C8 10 8 10 5.53125 10.1328125 C4.03078125 10.12894531 4.03078125 10.12894531 2.5 10.125 C1.4996875 10.12757812 0.499375 10.13015625 -0.53125 10.1328125 C-3 10 -3 10 -4 9 C-4.04080783 7.00041636 -4.04254356 4.99954746 -4 3 C-2.68 3 -1.36 3 0 3 C0 2.01 0 1.02 0 0 Z " fill="#401F11" transform="translate(57,22)"/>
<path d="M0 0 C2.70742421 2.00873409 2.90739102 4.28279124 3.9375 7.4375 C5.930752 9.31060888 5.930752 9.31060888 7.9375 10.4375 C7.32261719 10.34210937 6.70773438 10.24671875 6.07421875 10.1484375 C5.26597656 10.03757812 4.45773438 9.92671875 3.625 9.8125 C2.82449219 9.69648438 2.02398437 9.58046875 1.19921875 9.4609375 C-1.34973215 9.22216593 -1.34973215 9.22216593 -4.0625 11.4375 C-4.248125 10.5403125 -4.248125 10.5403125 -4.4375 9.625 C-5.01725985 7.17518652 -5.01725985 7.17518652 -7.0625 4.4375 C-6.25 2.5 -6.25 2.5 -5.0625 0.4375 C-2.0625 -0.5625 -2.0625 -0.5625 0 0 Z " fill="#F9C370" transform="translate(52.0625,7.5625)"/>
<path d="M0 0 C1.26237731 2.52475462 1.09856404 4.31200466 1.0625 7.125 C1.05347656 8.03507812 1.04445313 8.94515625 1.03515625 9.8828125 C1.02355469 10.58148438 1.01195313 11.28015625 1 12 C-0.32 11.67 -1.64 11.34 -3 11 C-3.1953125 8.98177083 -3.390625 6.96354167 -3.5859375 4.9453125 C-3.86374749 2.77331755 -3.86374749 2.77331755 -6 1 C-7.98821313 0.60235737 -9.98944339 0.26224651 -12 0 C-12 -0.33 -12 -0.66 -12 -1 C-7.33533582 -1.91464004 -4.23405029 -2.36608693 0 0 Z " fill="#F4ECE3" transform="translate(69,22)"/>
<path d="M0 0 C2.5625 0.1875 2.5625 0.1875 4.5625 2.1875 C4.00694444 6.74305556 4.00694444 6.74305556 2.5625 8.1875 C0.89632885 8.22813832 -0.77138095 8.230221 -2.4375 8.1875 C-2.81813221 5.8614143 -3.15019945 3.52694736 -3.4375 1.1875 C-2.4375 0.1875 -2.4375 0.1875 0 0 Z " fill="#923005" transform="translate(19.4375,52.8125)"/>
<path d="M0 0 C2.5625 0.1875 2.5625 0.1875 4.5625 2.1875 C4.00694444 6.74305556 4.00694444 6.74305556 2.5625 8.1875 C0.89632885 8.22813832 -0.77138095 8.230221 -2.4375 8.1875 C-2.81813221 5.8614143 -3.15019945 3.52694736 -3.4375 1.1875 C-2.4375 0.1875 -2.4375 0.1875 0 0 Z " fill="#923005" transform="translate(11.4375,44.8125)"/>
<path d="M0 0 C3.27331027 0.53313109 5.02925708 1.94904909 7.23046875 4.36328125 C7.23046875 5.02328125 7.23046875 5.68328125 7.23046875 6.36328125 C6.28171875 6.05390625 5.33296875 5.74453125 4.35546875 5.42578125 C-0.2789155 4.08399854 -4.97505166 3.72986118 -9.76953125 3.36328125 C-6.78424482 -0.22096392 -4.46282407 -0.13832571 0 0 Z " fill="#4C1D08" transform="translate(88.76953125,37.63671875)"/>
<path d="M0 0 C1.65 0.33 3.3 0.66 5 1 C5.04254356 2.99954746 5.04080783 5.00041636 5 7 C4 8 4 8 1.4375 8.0625 C0.633125 8.041875 -0.17125 8.02125 -1 8 C-1.625 5.6875 -1.625 5.6875 -2 3 C-1.34 2.01 -0.68 1.02 0 0 Z " fill="#8D2D04" transform="translate(18,37)"/>
<path d="M0 0 C0.33 0 0.66 0 1 0 C1.18175781 0.85271484 1.18175781 0.85271484 1.3671875 1.72265625 C1.71605917 3.33014954 2.07467232 4.93555 2.44140625 6.5390625 C2.78430552 8.04973762 3.1089546 9.56487141 3.40234375 11.0859375 C3.81662957 13.17729268 3.81662957 13.17729268 5 16 C7.47636012 17.37466625 7.47636012 17.37466625 10 18 C10.33 18.66 10.66 19.32 11 20 C7.75 20 7.75 20 4 19 C0.26633548 14.9758198 -0.22944785 10.30245455 -0.25 5 C-0.18656089 3.33245759 -0.11019088 1.66510666 0 0 Z " fill="#993407" transform="translate(0,45)"/>
<path d="M0 0 C1.65 0 3.3 0 5 0 C5 2.31 5 4.62 5 7 C4.01 7.495 4.01 7.495 3 8 C3 7.01 3 6.02 3 5 C1.68 5 0.36 5 -1 5 C-0.67 3.35 -0.34 1.7 0 0 Z " fill="#983307" transform="translate(86,54)"/>
<path d="M0 0 C1.65 0 3.3 0 5 0 C5 1.98 5 3.96 5 6 C3.35 5.67 1.7 5.34 0 5 C0 3.35 0 1.7 0 0 Z " fill="#8C2C03" transform="translate(73,51)"/>
<path d="M0 0 C0.33 0 0.66 0 1 0 C1.13277344 0.60328125 1.26554688 1.2065625 1.40234375 1.828125 C1.66724609 3.02695312 1.66724609 3.02695312 1.9375 4.25 C2.11152344 5.03890625 2.28554688 5.8278125 2.46484375 6.640625 C2.947556 8.76878703 3.46163178 10.88532842 4 13 C2.68 12.34 1.36 11.68 0 11 C0 7.37 0 3.74 0 0 Z " fill="#B84710" transform="translate(0,45)"/>
</svg>
